<svg xmlns="http://www.w3.org/2000/svg" viewBox="344.066 102.159 178.96 66.977">
  <defs>
    <style>
      .cls-1 {
        fill: #6b7861;
      }
    </style>
  </defs>
  <g id="Group_165" data-name="Group 165" transform="translate(344.005 101.916)">
    <g id="Group_2" data-name="Group 2" transform="translate(53.741 52.871)">
      <g id="Group_1" data-name="Group 1">
        <path id="Path_1" data-name="Path 1" class="cls-1" d="M55.3,57.3h.972l2.041,5.831L60.353,57.3h.875l2.041,5.831L65.309,57.3h.875l-2.527,6.705h-.875l-2.041-5.636L58.7,64.005h-.875Z" transform="translate(-55.3 -54.482)"/>
        <path id="Path_2" data-name="Path 2" class="cls-1" d="M74.333,58.275A3.952,3.952,0,0,1,75.111,61H69.475a2.9,2.9,0,0,0,.777,1.749,2.342,2.342,0,0,0,1.749.68,4.878,4.878,0,0,0,1.166-.194,3.49,3.49,0,0,0,.972-.68l.486.486a2.478,2.478,0,0,1-1.166.777,4.028,4.028,0,0,1-1.555.292,3.309,3.309,0,1,1,0-6.608A2.111,2.111,0,0,1,74.333,58.275Zm0,1.944a2.344,2.344,0,0,0-.68-1.652,2.632,2.632,0,0,0-3.3,0,2.928,2.928,0,0,0-.777,1.652Z" transform="translate(-55.675 -54.485)"/>
        <path id="Path_3" data-name="Path 3" class="cls-1" d="M79.1,54.4h.875v9.523H79.1Z" transform="translate(-55.972 -54.4)"/>
        <path id="Path_4" data-name="Path 4" class="cls-1" d="M84.5,54.4h.875v9.523H84.5Z" transform="translate(-56.124 -54.4)"/>
        <path id="Path_5" data-name="Path 5" class="cls-1" d="M95.345,57.88a2.505,2.505,0,0,1,.68,1.944v4.081H95.15V60.018a2.012,2.012,0,0,0-.486-1.458,1.978,1.978,0,0,0-1.458-.583,2,2,0,0,0-1.652.68,2.344,2.344,0,0,0-.68,1.652v3.6H90V57.2h.875v1.555a2.857,2.857,0,0,1,.972-1.166A2.978,2.978,0,0,1,93.5,57.2,2.852,2.852,0,0,1,95.345,57.88Z" transform="translate(-56.279 -54.479)"/>
        <path id="Path_6" data-name="Path 6" class="cls-1" d="M105.336,58.275A3.952,3.952,0,0,1,106.114,61h-5.636a2.894,2.894,0,0,0,.777,1.749,2.342,2.342,0,0,0,1.749.68,4.878,4.878,0,0,0,1.166-.194,3.49,3.49,0,0,0,.972-.68l.486.486a2.478,2.478,0,0,1-1.166.777,3.9,3.9,0,0,1-1.458.292,3.309,3.309,0,1,1,0-6.608A2.02,2.02,0,0,1,105.336,58.275Zm0,1.944a2.344,2.344,0,0,0-.68-1.652,2.632,2.632,0,0,0-3.3,0,2.928,2.928,0,0,0-.777,1.652Z" transform="translate(-56.553 -54.485)"/>
        <path id="Path_7" data-name="Path 7" class="cls-1" d="M112.593,58.075a3,3,0,0,0-.972-.1,1.959,1.959,0,0,0-1.069.292.789.789,0,0,0-.389.777,1.381,1.381,0,0,0,.194.583.97.97,0,0,0,.486.389,4.518,4.518,0,0,0,.875.292,8.1,8.1,0,0,1,1.166.389,1.511,1.511,0,0,1,.777.583,1.642,1.642,0,0,1,.292.972,1.47,1.47,0,0,1-.68,1.36,3.356,3.356,0,0,1-1.749.486,3.9,3.9,0,0,1-1.458-.292,3.36,3.36,0,0,1-1.166-.68l.389-.583a2.316,2.316,0,0,0,1.069.583,2.465,2.465,0,0,0,1.166.194,1.746,1.746,0,0,0,1.069-.292.884.884,0,0,0,.389-.777.822.822,0,0,0-.194-.583,1.494,1.494,0,0,0-.583-.389,4.518,4.518,0,0,0-.875-.292,6.411,6.411,0,0,1-1.069-.389,1.306,1.306,0,0,1-.68-.583,1.642,1.642,0,0,1-.292-.972,1.47,1.47,0,0,1,.68-1.36,3.012,3.012,0,0,1,1.652-.486,3.493,3.493,0,0,1,1.069.194c.292.1.68.292.972.389l-.292.68A1.953,1.953,0,0,0,112.593,58.075Z" transform="translate(-56.813 -54.479)"/>
        <path id="Path_8" data-name="Path 8" class="cls-1" d="M120.393,58.075a3,3,0,0,0-.972-.1,1.959,1.959,0,0,0-1.069.292.789.789,0,0,0-.389.777,1.381,1.381,0,0,0,.194.583.97.97,0,0,0,.486.389,4.518,4.518,0,0,0,.875.292,8.1,8.1,0,0,1,1.166.389,1.511,1.511,0,0,1,.777.583,1.642,1.642,0,0,1,.292.972,1.47,1.47,0,0,1-.68,1.36,3.356,3.356,0,0,1-1.749.486,3.9,3.9,0,0,1-1.458-.292,3.36,3.36,0,0,1-1.166-.68l.389-.583a2.316,2.316,0,0,0,1.069.583,2.465,2.465,0,0,0,1.166.194,1.746,1.746,0,0,0,1.069-.292.884.884,0,0,0,.389-.777.822.822,0,0,0-.194-.583,1.494,1.494,0,0,0-.583-.389,4.518,4.518,0,0,0-.875-.292,6.411,6.411,0,0,1-1.069-.389,1.306,1.306,0,0,1-.68-.583,1.642,1.642,0,0,1-.292-.972,1.47,1.47,0,0,1,.68-1.36,3.012,3.012,0,0,1,1.652-.486,3.493,3.493,0,0,1,1.069.194c.292.1.68.292.972.389l-.292.68A1.953,1.953,0,0,0,120.393,58.075Z" transform="translate(-57.033 -54.479)"/>
      </g>
    </g>
    <rect id="Rectangle_1" data-name="Rectangle 1" class="cls-1" width="4.762" height="0.777" transform="translate(43.731 58.022)"/>
    <rect id="Rectangle_2" data-name="Rectangle 2" class="cls-1" width="4.762" height="0.777" transform="translate(123.903 58.022)"/>
    <path id="Path_9" data-name="Path 9" class="cls-1" d="M177.739,29.549a28.629,28.629,0,0,1-11.661,10.106c.486-3.79.875-7.871,1.069-11.564.194-1.846-4.276-2.041-4.664-.389a23.341,23.341,0,0,1-4.762,9.912c-.972,1.166-3.012,2.041-2.721-.68.194-2.041,1.458-6.025,1.652-7.385.583-2.624-3.693-3.012-4.665-1.263a18.018,18.018,0,0,0-1.555,5.539,29.264,29.264,0,0,1-6.511,6.317c-4.567,2.429-6.219-.389-6.8-1.263a3.089,3.089,0,0,1-.292-.875,18.1,18.1,0,0,0,5.15-5.636,4.244,4.244,0,0,0,.1-3.79c-.972-1.166-3.3-1.166-4.47-.875a6.613,6.613,0,0,0-4.956,4.956,7.591,7.591,0,0,0,.777,5.928c-3.11,1.944-5.733,3.11-8.454,3.4-.194,0-.583.1-.875.1-4.665-.292-4.859-5.15-4.567-8.94.875-.875,1.652-1.652,2.527-2.429a98,98,0,0,0,6.8-7.094c1.263-1.36,2.527-2.818,3.693-4.276,3.887-4.956,7-9.912,6.9-13.313.1-5.636-5.539-7.288-11.078-4.373-8.649,4.373-13.119,17.881-13.6,26.529a28.242,28.242,0,0,0,.486,7.483l-.389.389c-3.887,4.081-9.718,9.912-10.981,9.523-.292,0-.292-.68-.292-1.458.292-3.207,1.36-6.414,1.36-9.718,0-1.458-.389-3.207-2.041-3.693-1.555-.389-2.721.777-3.5,1.944a37.361,37.361,0,0,0-2.041,3.887c.1-1.069.292-2.235.389-3.3.1-.389.194-.972.292-1.458l.875-.875c5.733-5.442,18.852-18.658,17.978-24.975-.486-4.762-5.345-6.219-10.592-3.5-5.442,2.915-9.037,9.815-11.078,16.617C93.583,17.5,89.891,17.3,89.016,17.3a57.014,57.014,0,0,0-8.066.486c1.069-3.6,2.332-7.191,3.693-10.592l.68-1.458.583-1.36c.68-1.458-3.207-2.527-4.373-.68a24.167,24.167,0,0,0-1.458,2.721L79.3,7.878a88.552,88.552,0,0,0-4.081,10.787c-3.207.486-6.705.777-6.705.777-6.317.68-7.288-2.624-7.385-2.721a.707.707,0,1,0-1.36.389C59.766,17.3,60.835,21,66.86,21a12.391,12.391,0,0,0,1.846-.1s3.11-.292,6.122-.68a52.514,52.514,0,0,0-1.652,7c-.194,1.069-.292,2.235-.389,3.4-2.721,3.887-6.317,8.843-9.523,11.758-1.652,1.458-3.4,2.915-2.818-.875A44.948,44.948,0,0,1,62.1,35.379c.68-2.041,1.458-4.081-1.263-4.859l-2.818-.68c.875-1.458,2.624-4.373,1.652-6.122-.68-1.263-2.624-1.166-3.79-.583-2.041.972-2.624,3.79-1.846,5.733a3.713,3.713,0,0,0,1.555,1.846c-1.944,2.624-5.831,8.26-9.232,8.94-1.652.292-1.749-1.555-1.652-2.721.292-2.818,1.36-5.831,2.041-8.552.389-1.749-2.818-3.012-4.179-2.041-.292.194-.389.68-.68.972-3.3-.777-7.191.389-8.357,3.79a2.837,2.837,0,0,0-.194.875c-4.47,6.317-11.078,14.188-18.95,14.382-15.548.292-10.3-26.335,4.956-24.489.875.1.972-1.069.292-1.36-7.677-2.429-6.511-15.16.389-16.617,2.624-.583,5.539.1,6.608,3.207a9.628,9.628,0,0,1-.389,5.733.723.723,0,0,0,1.36.486,10.634,10.634,0,0,0,.486-6.705c-1.166-3.5-4.47-4.956-7.774-4.665C10.594,2.631,7.29,13.515,13.9,20.123A14.568,14.568,0,0,0,.876,30.035c-3.207,9.912,3.4,18.366,13.6,17.881,7.871-.389,14.091-6.8,18.95-13.41a3.673,3.673,0,0,0,1.944,2.915c1.458.777,3.012-.194,3.79-1.458A24.926,24.926,0,0,0,41.2,32.075c-.389,2.332-.777,6.317.875,8.066a3.855,3.855,0,0,0,3.79,1.069c3.012-.486,5.345-3.012,7.288-5.15,1.36-1.555,2.527-3.207,3.79-4.859.777.292,1.36.486,1.555.875.194.292-.68,2.235-.875,2.624-1.36,3.11-2.818,9.037,1.263,10.3,2.041.68,3.79-.486,5.248-1.846a67.259,67.259,0,0,0,8.649-10.4c0,3.11.583,6.317,2.332,8.552a6.835,6.835,0,0,0,5.539,2.527,11.981,11.981,0,0,0,1.749-.292,5.208,5.208,0,0,0,1.069-.486c2.429-1.166,5.636-3.6,9.621-7.191,0,1.069.1,2.138.194,3.207.194,1.652,3.207,1.944,3.984.292.583-1.166,4.762-10.689,3.79-5.442a67.748,67.748,0,0,0-.972,6.705,6.752,6.752,0,0,0,1.069,4.956,3.851,3.851,0,0,0,2.624.972c2.332-.1,6.219-3.79,11.953-9.815a9.973,9.973,0,0,0,3.693,5.053,7.177,7.177,0,0,0,4.762,1.36h.1a8.505,8.505,0,0,0,1.555-.194,23.453,23.453,0,0,0,8.552-3.5,1.342,1.342,0,0,1,.292.389,8.16,8.16,0,0,0,10.4.972,25.227,25.227,0,0,0,5.345-4.859,4.935,4.935,0,0,0,1.458,3.6,4.733,4.733,0,0,0,4.276.583c2.235-.777,3.693-3.207,5.15-5.733-.486,2.721-.777,5.053-1.458,7.871-6.025,2.721-14.285,7.969-16.909,14.965-3.11,7.969,1.846,12.536,9.329,8.454,8.357-4.373,11.953-15.743,13.508-24.586A30.885,30.885,0,0,0,178.9,30.229C179.391,29.549,178.225,28.771,177.739,29.549ZM130.705,3.408c3.79-3.6,7.191-1.846,7.288,2.624-.194,4.956-8.454,15.257-17.006,23.42l-1.458,1.458C121.765,19.734,124.972,8.753,130.705,3.408ZM110.4,2.922c2.818-1.749,4.859-.1,4.956,3.11.292,3.887-6.219,12.633-17.1,23.031C100.386,18.276,104.273,6.615,110.4,2.922ZM37.9,35.185c-1.263,1.846-1.944-.68-1.555-2.235.389-1.652,2.721-4.567,4.762-4.276A67.518,67.518,0,0,1,37.9,35.185Zm18.658-6.122c-.777-.583-.486-2.041-.292-2.624.875-2.527,2.915-3.11,1.458.194A11.183,11.183,0,0,1,56.559,29.063Zm36.733-.875C93.1,30.035,93,32.075,92.9,34.116c-4.373,3.984-9.426,8.066-12.05,8.454-1.846.1-3.3-1.36-3.5-5.248-.292-4.859,1.166-11.37,2.429-15.937.194-.777.486-1.555.68-2.235a61.8,61.8,0,0,1,8.454-.583c2.041,0,5.248.486,5.733,2.041h0C94.069,23.135,93.583,25.856,93.292,28.188Zm44.41,2.429c1.166-2.041,3.693-2.332,3.4-.1a2.239,2.239,0,0,1-.389,1.069,17.856,17.856,0,0,1-4.179,4.665A8.567,8.567,0,0,1,137.7,30.618Zm13.022,33.137c-5.733,5.053-8.746.194-6.511-5.831,2.429-6.219,10.009-11.273,15.354-13.8C157.915,50.636,155.777,59.188,150.724,63.755Z" transform="translate(0 0)"/>
  </g>
</svg>
